<svg width="50" height="54" viewBox="0 0 50 54" fill="none" xmlns="http://www.w3.org/2000/svg">
<path d="M12.75 36.8C7.33756 36.8 2.94995 32.4124 2.94995 27C2.94995 22.3277 6.21964 18.4191 10.5957 17.4375C10.4021 16.5727 10.3 15.6733 10.3 14.75C10.3 7.98451 15.7845 2.5 22.5499 2.5C28.4772 2.5 33.4213 6.70971 34.5554 12.3024C34.6367 12.3008 34.7182 12.3 34.7999 12.3C41.5654 12.3 47.0499 17.7845 47.0499 24.55C47.0499 30.4764 42.8414 35.4199 37.2499 36.555M32.3499 29.45L24.9999 22.1M24.9999 22.1L17.65 29.45M24.9999 22.1L24.9999 51.5" stroke="#D4D4D4" stroke-width="4" stroke-linecap="round" stroke-linejoin="round"/>
</svg>
